 <svg  version="1.0" xmlns="http://www.w3.org/2000/svg"  width="300.000000pt" height="200.000000pt" viewBox="0 0 300.000000 200.000000"  preserveAspectRatio="xMidYMid meet">  <g transform="translate(0.000000,200.000000) scale(0.100000,-0.100000)" fill="#ff0000" stroke="none"> <path d="M1734 1938 c-22 -24 -60 -75 -84 -115 -25 -40 -51 -72 -57 -73 -7 0 -15 -11 -19 -25 -3 -14 -18 -31 -33 -38 -21 -10 -27 -21 -32 -57 -3 -25 -13 -58 -22 -75 -9 -16 -17 -39 -17 -50 0 -14 -20 -32 -66 -58 -36 -21 -67 -37 -69 -35 -2 2 16 82 40 178 l45 175 -21 17 c-29 25 -56 8 -69 -45 -62 -234 -93 -343 -101 -345 -22 -8 -8 -31 18 -29 33 2 41 -20 20 -61 l-14 -28 56 23 c31 12 65 23 76 23 27 0 37 9 64 54 l24 38 14 -33 c16 -39 13 -35 39 -43 17 -5 22 0 31 29 8 24 8 37 1 41 -11 7 -27 -13 -29 -36 0 -8 -7 -1 -14 15 -19 41 -18 129 1 166 l15 30 17 -21 c12 -15 52 -31 122 -50 118 -33 141 -35 158 -18 22 22 14 -64 -9 -102 -42 -70 -83 -101 -77 -58 2 11 -3 23 -9 25 -7 3 -13 -3 -13 -12 0 -9 -7 -29 -15 -45 -13 -25 -13 -29 2 -34 9 -4 25 0 37 9 12 8 32 23 45 32 l24 17 -5 -86 c-7 -103 4 -132 22 -58 8 33 10 76 6 117 -7 71 6 79 24 15 16 -58 12 -133 -10 -181 -23 -49 -25 -71 -9 -71 8 0 10 -24 7 -77 -8 -132 -78 -239 -196 -299 -51 -26 -67 -29 -152 -29 -85 0 -101 3 -152 29 -190 96 -256 334 -142 509 l25 38 -39 47 c-22 26 -49 55 -60 65 -12 11 -18 26 -16 35 11 35 -79 -75 -107 -130 -78 -155 -77 -343 2 -501 20 -38 59 -89 103 -133 220 -220 554 -220 771 0 120 121 172 253 162 416 -7 116 -9 120 -55 105 -20 -7 -54 -16 -76 -19 l-39 -7 9 28 c5 15 9 62 9 103 0 58 -5 83 -21 110 -14 24 -18 42 -13 55 4 11 8 39 8 63 1 24 8 50 16 58 19 20 19 58 0 74 -9 7 -12 22 -9 40 4 15 1 31 -5 34 -6 4 -11 35 -11 69 0 72 -15 170 -31 210 -17 40 -49 35 -95 -15z m77 -15 c6 -16 13 -74 16 -130 5 -84 3 -103 -8 -103 -33 1 -184 49 -182 59 9 37 134 201 154 201 5 0 14 -12 20 -27z m-469 -351 c-29 -114 -52 -182 -59 -182 -18 0 -18 -1 33 192 50 187 52 194 65 181 4 -4 -13 -90 -39 -191z m504 76 c19 -20 -32 -16 -131 10 -75 20 -111 34 -113 44 -2 13 18 10 117 -16 66 -17 123 -35 127 -38z m-138 -17 c79 -21 148 -43 154 -49 15 -15 2 -42 -21 -42 -10 0 -22 -7 -25 -16 -7 -19 -33 -17 -149 14 -83 22 -107 35 -107 60 0 8 -8 20 -17 27 -15 11 -15 15 -4 29 7 9 16 16 20 16 4 0 71 -17 149 -39z m-279 -240 c-27 -40 -48 -61 -67 -65 -15 -4 -35 -9 -44 -12 -14 -4 -15 0 -9 23 6 21 25 38 82 70 41 24 75 43 76 43 1 0 -16 -27 -38 -59z m-299 -391 c0 -18 -7 -20 -79 -20 -76 0 -100 8 -86 30 3 6 42 10 86 10 72 0 79 -2 79 -20z m900 0 c0 -18 -7 -20 -80 -20 -73 0 -80 2 -80 20 0 18 7 20 80 20 73 0 80 -2 80 -20z m-784 -261 c3 -6 -19 -37 -52 -70 -46 -46 -61 -56 -71 -47 -11 9 -3 22 44 70 60 61 67 65 79 47z m587 -47 c47 -48 55 -61 44 -70 -10 -9 -25 1 -71 47 -50 51 -64 81 -38 81 4 0 34 -26 65 -58z m-313 -142 c0 -73 -2 -80 -20 -80 -18 0 -20 7 -20 80 0 73 2 80 20 80 18 0 20 -7 20 -80z"/> <path d="M1630 1610 c0 -5 7 -10 15 -10 8 0 15 5 15 10 0 6 -7 10 -15 10 -8 0 -15 -4 -15 -10z"/> <path d="M1740 1580 c0 -5 7 -10 15 -10 8 0 15 5 15 10 0 6 -7 10 -15 10 -8 0 -15 -4 -15 -10z"/> <path d="M1019 1759 c-190 -123 -318 -293 -385 -514 -25 -81 -28 -105 -28 -245 0 -140 3 -164 28 -245 95 -311 333 -544 641 -627 114 -30 336 -30 450 0 307 83 547 317 641 627 25 82 28 105 28 245 0 140 -3 164 -28 245 -25 81 -86 214 -120 261 -13 17 -15 14 -22 -31 -12 -81 -9 -105 31 -215 35 -96 39 -116 43 -230 5 -152 -17 -261 -78 -382 -104 -208 -270 -347 -500 -420 -65 -20 -95 -23 -225 -23 -143 1 -154 2 -245 33 -337 117 -550 411 -550 760 0 252 107 478 300 629 50 39 56 48 71 108 8 36 15 65 14 65 -1 0 -31 -19 -66 -41z"/> <path d="M1016 1568 l-37 -33 55 -54 c68 -67 86 -61 22 7 l-47 50 31 25 c16 14 30 28 30 31 0 13 -19 4 -54 -26z"/> <path d="M928 1478 c-19 -24 -43 -55 -52 -70 l-17 -26 61 -36 c34 -20 65 -36 69 -36 9 0 81 89 81 99 0 4 -24 31 -54 60 l-53 53 -35 -44z m94 -107 c-14 -20 -27 -38 -29 -40 -2 -3 -88 44 -102 55 -5 4 26 53 52 82 l21 22 42 -41 43 -42 -27 -36z"/> <path d="M1636 1492 c-3 -3 -1 -11 5 -19 12 -14 69 -18 69 -5 0 10 -67 32 -74 24z"/> <path d="M810 1284 c-17 -42 -30 -77 -28 -79 2 -1 36 -12 76 -23 l73 -21 8 22 c5 12 16 39 25 61 9 21 16 40 16 41 0 5 -121 75 -130 75 -4 0 -22 -34 -40 -76z m106 20 c25 -15 44 -29 42 -33 -2 -3 -10 -23 -18 -43 -8 -21 -20 -38 -27 -38 -31 0 -103 25 -103 36 0 23 39 104 50 104 6 0 32 -12 56 -26z"/> <path d="M2176 1292 c-4 -6 -2 -20 4 -31 19 -36 11 -46 -50 -64 -33 -9 -60 -21 -60 -26 0 -8 137 24 148 34 1 1 -6 24 -16 50 -11 28 -22 43 -26 37z"/> <path d="M1286 1214 c-17 -17 -20 -33 -8 -50 21 -31 72 -18 72 19 0 43 -35 60 -64 31z"/> <path d="M1662 1218 c-36 -36 6 -91 46 -62 26 18 28 37 6 58 -19 19 -36 20 -52 4z"/> <path d="M766 1133 c-4 -27 -9 -65 -12 -85 l-6 -38 80 0 80 0 7 60 c4 33 6 63 5 67 -1 8 -114 43 -136 43 -7 0 -15 -21 -18 -47z m99 7 l41 -12 -6 -46 -5 -47 -63 -3 -63 -3 6 48 c10 73 15 84 33 79 9 -3 35 -10 57 -16z"/> <path d="M2137 1161 c-32 -9 -58 -21 -59 -26 0 -6 3 -36 6 -67 l7 -58 80 0 81 0 -6 38 c-3 20 -8 58 -12 85 -7 54 -9 54 -97 28z m77 -23 c3 -13 7 -42 11 -66 l5 -43 -62 3 -63 3 -6 45 c-4 25 -5 46 -4 48 3 4 93 29 107 31 4 1 10 -9 12 -21z"/> <path d="M1357 1143 c-12 -11 -8 -18 38 -77 25 -32 45 -63 45 -68 0 -5 -20 -34 -45 -65 -44 -54 -51 -73 -28 -80 6 -2 35 17 66 42 31 25 61 45 67 45 6 0 36 -20 67 -45 54 -44 73 -51 80 -28 2 6 -17 35 -42 66 -25 31 -45 61 -45 67 0 6 20 36 45 67 44 54 51 73 28 80 -6 2 -35 -17 -66 -42 -31 -25 -61 -45 -67 -45 -6 0 -36 20 -67 45 -56 46 -65 50 -76 38z"/> <path d="M1450 1140 c-13 -8 -10 -14 15 -35 17 -13 32 -24 35 -24 3 0 19 11 35 24 25 21 28 27 15 35 -8 5 -31 10 -50 10 -19 0 -42 -5 -50 -10z"/> <path d="M1356 1044 c-13 -33 -4 -104 13 -104 4 0 17 14 29 30 l23 30 -23 30 c-25 34 -33 37 -42 14z"/> <path d="M1602 1030 l-23 -30 23 -30 c25 -34 33 -37 42 -14 13 33 4 104 -13 104 -4 0 -17 -13 -29 -30z"/> <path d="M754 953 c3 -21 8 -59 12 -85 3 -27 11 -48 18 -48 24 1 141 37 139 44 0 3 -4 33 -8 66 l-7 60 -80 0 -80 0 6 -37z m146 -35 l6 -46 -55 -16 c-59 -17 -71 -12 -71 30 0 12 -3 36 -6 53 l-7 32 64 -3 64 -3 5 -47z"/> <path d="M2084 930 c-4 -33 -7 -63 -8 -66 -1 -7 118 -44 140 -44 7 0 15 21 18 48 4 26 9 64 12 85 l6 37 -81 0 -80 0 -7 -60z m142 18 c-3 -13 -6 -36 -6 -53 -1 -52 -9 -57 -73 -38 -42 12 -56 20 -52 30 3 8 5 30 5 49 l0 34 66 0 c64 0 66 -1 60 -22z"/> <path d="M1465 895 c-25 -21 -28 -27 -15 -35 8 -5 31 -10 50 -10 19 0 42 5 50 10 13 8 10 14 -15 35 -16 13 -32 24 -35 24 -3 0 -18 -11 -35 -24z"/> <path d="M1289 841 c-26 -21 -19 -56 13 -67 29 -9 62 29 48 56 -14 27 -37 31 -61 11z"/> <path d="M1660 840 c-19 -19 -20 -24 -7 -43 19 -28 40 -32 61 -11 21 21 17 42 -11 61 -19 13 -24 12 -43 -7z"/> <path d="M855 818 c-38 -11 -71 -21 -73 -23 -5 -4 59 -155 65 -155 4 0 35 16 70 36 53 30 63 39 57 56 -8 25 -44 108 -47 107 -1 0 -33 -10 -72 -21z m85 -45 c8 -21 16 -41 18 -44 3 -8 -82 -59 -98 -59 -11 0 -50 81 -50 104 0 7 17 17 38 23 67 19 77 16 92 -24z"/> <path d="M2051 795 c-37 -84 -38 -80 32 -119 35 -20 66 -36 70 -36 6 0 70 151 65 155 -2 1 -36 12 -75 23 l-73 20 -19 -43z m94 3 c25 -7 45 -18 45 -24 0 -23 -39 -104 -50 -104 -16 0 -101 51 -98 59 2 3 10 23 18 44 16 41 20 42 85 25z"/> <path d="M917 653 l-58 -35 17 -26 c9 -15 33 -46 52 -70 l35 -44 53 53 c30 29 54 56 54 60 0 13 -73 99 -84 98 -6 0 -37 -16 -69 -36z m105 -22 l26 -39 -42 -41 -42 -41 -21 22 c-26 30 -57 78 -52 82 7 7 94 56 99 56 3 -1 17 -18 32 -39z"/> <path d="M1966 643 c-20 -25 -36 -49 -36 -52 0 -4 24 -31 54 -60 l53 -53 35 44 c19 24 43 55 52 70 l17 26 -61 36 c-34 20 -65 36 -69 36 -5 0 -25 -21 -45 -47z m95 0 c27 -14 49 -29 49 -32 0 -9 -29 -51 -53 -79 l-21 -22 -42 41 -42 41 26 39 c15 21 29 38 31 39 2 0 25 -12 52 -27z"/> <path d="M1031 516 l-53 -53 44 -35 c24 -19 55 -43 70 -52 l26 -17 36 64 c20 35 36 66 36 69 0 7 -91 78 -99 78 -4 0 -31 -24 -60 -54z m138 -23 c3 -2 -43 -88 -55 -102 -5 -5 -69 36 -89 59 -17 19 -17 21 25 59 l43 39 36 -26 c20 -14 38 -27 40 -29z"/> <path d="M1857 534 c-26 -20 -47 -40 -47 -45 0 -4 16 -35 36 -69 l37 -61 26 17 c14 9 45 33 69 52 l44 35 -53 53 c-29 30 -56 54 -60 54 -3 0 -27 -16 -52 -36z m130 -68 c-4 -12 -84 -76 -95 -76 -4 0 -20 23 -36 51 -27 49 -27 51 -10 64 11 7 28 20 39 28 18 14 23 12 62 -21 24 -19 42 -40 40 -46z"/> <path d="M1175 419 c-19 -33 -35 -64 -35 -68 0 -9 84 -48 131 -61 26 -8 27 -6 46 67 l20 74 -55 25 c-30 13 -58 24 -63 24 -4 0 -24 -27 -44 -61z m98 21 c41 -16 42 -20 25 -85 -11 -39 -16 -45 -33 -41 -43 11 -95 37 -95 47 0 15 51 100 59 97 3 -2 23 -10 44 -18z"/> <path d="M1713 455 l-52 -24 21 -73 c11 -40 21 -74 23 -76 1 -1 35 11 76 28 41 16 75 30 77 30 8 0 -3 27 -33 79 -20 34 -41 61 -48 60 -7 0 -35 -11 -64 -24z m91 -39 c14 -25 26 -49 26 -55 0 -10 -52 -36 -95 -47 -19 -5 -23 1 -35 50 -7 31 -11 57 -9 59 10 6 75 36 81 36 3 1 18 -19 32 -43z"/> <path d="M1355 418 c-13 -39 -35 -123 -35 -134 0 -6 21 -15 48 -18 26 -4 64 -9 85 -12 l37 -6 0 80 0 80 -47 6 c-27 4 -56 9 -66 12 -9 3 -19 -1 -22 -8z m81 -18 l34 0 0 -65 0 -64 -27 4 c-16 2 -45 7 -66 10 -30 5 -37 10 -33 23 3 9 10 37 16 60 8 33 15 42 26 38 9 -3 31 -6 50 -6z"/> <path d="M1568 418 l-58 -10 0 -80 0 -80 28 6 c15 2 53 8 85 11 33 4 57 11 57 18 0 26 -37 141 -46 143 -5 1 -35 -3 -66 -8z m71 -50 c7 -24 14 -51 17 -60 4 -13 -3 -18 -33 -23 -21 -3 -50 -8 -65 -10 l-28 -4 0 64 0 64 43 4 c23 2 45 4 48 5 3 1 11 -17 18 -40z"/> </g> </svg> 